<svg width="20" height="20" viewBox="0 0 20 20" fill="none" xmlns="http://www.w3.org/2000/svg">
  <path d="M10 20C15.5228 20 20 15.5228 20 10C20 4.47715 15.5228 0 10 0C4.47715 0 0 4.47715 0 10C0 15.5228 4.47715 20 10 20Z" fill="#039BE5"/>
  <path d="M4.65051 9.90833L14.4363 6.25178C14.8905 6.09277 15.2872 6.35916 15.14 7.02473L15.1408 7.02391L13.4746 14.6313C13.3512 15.1706 13.0205 15.3018 12.5578 15.0477L10.0204 13.2354L8.79658 14.378C8.66125 14.5091 8.54707 14.6198 8.28487 14.6198L8.46503 12.1173L13.1676 8.00014C13.3723 7.82555 13.1219 7.72719 12.8521 7.90096L7.04072 11.4469L4.53549 10.6895C3.99164 10.5223 3.9798 10.1624 4.65051 9.90833Z" fill="white"/>
</svg>
