<svg width="20" height="21" viewBox="0 0 20 21" fill="none" xmlns="http://www.w3.org/2000/svg">
  <path d="M19.7957 12.1572C20.4466 6.88823 19.483 3.56179 17.7448 2.05724L17.7457 2.05637C14.9402 -0.51299 5.46565 -0.89328 2.10928 2.17177C0.601999 3.67107 0.071088 5.8715 0.012906 8.5956C-0.045276 11.3206 -0.114367 16.4252 4.83201 17.81H4.83656L4.83201 19.9247C4.83201 19.9247 4.79838 20.7815 5.36747 20.9537C6.01838 21.1565 6.31293 20.7587 8.33748 18.4333C11.7229 18.7157 14.323 18.0687 14.6184 17.9743C15.302 17.754 19.1702 17.2618 19.7957 12.1572ZM8.67112 16.9454C8.67112 16.9454 6.52838 19.5147 5.86202 20.1818C5.64383 20.3986 5.40474 20.3785 5.40838 19.9483C5.40838 19.666 5.42474 16.4374 5.42474 16.4374C1.23109 15.2817 1.47837 10.935 1.52382 8.66117C1.56927 6.38642 2.002 4.52344 3.27837 3.26892C6.22293 0.613891 14.5293 1.20749 16.6457 3.12031C19.233 5.32598 18.3121 11.5575 18.3175 11.7699C17.7857 16.0309 14.6511 16.3011 14.0748 16.4855C13.8284 16.5642 11.542 17.1298 8.67112 16.9454Z" fill="#8E24AA"/>
  <path d="M9.85674 3.76807C9.50674 3.76807 9.50674 4.2926 9.85674 4.29698C12.5722 4.31708 14.8086 6.13723 14.8331 9.47591C14.8331 9.82822 15.3695 9.82385 15.3649 9.47154H15.364C15.3349 5.87408 12.8931 3.78817 9.85674 3.76807Z" fill="#8E24AA"/>
  <path d="M13.4295 8.9229C13.4213 9.27084 13.9568 9.28745 13.9613 8.93514C14.0059 6.95151 12.734 5.31758 10.344 5.14536C9.99402 5.12088 9.95766 5.64979 10.3067 5.67426C12.3795 5.82551 13.4713 7.18581 13.4295 8.9229Z" fill="#8E24AA"/>
  <path d="M12.8572 11.1789C12.4081 10.9289 11.9508 11.0845 11.7617 11.3301L11.3663 11.8223C11.1654 12.0724 10.7899 12.0391 10.7899 12.0391C8.04992 11.3424 7.31719 8.58507 7.31719 8.58507C7.31719 8.58507 7.28355 8.21177 7.53446 8.01158L8.02901 7.61817C8.27628 7.42934 8.43265 6.97474 8.18083 6.52801C7.5081 5.35917 7.05628 4.95615 6.82628 4.64667C6.58446 4.35555 6.22082 4.28998 5.84264 4.48668H5.83445C5.04809 4.92904 4.18718 5.75694 4.46263 6.60931C4.93263 7.50802 5.79627 10.3729 8.54901 12.5375C9.84265 13.5612 11.8899 14.6103 12.759 14.8524L12.7672 14.8647C13.6236 15.1392 14.4563 14.2789 14.9009 13.5V13.4939C15.0981 13.1171 15.0327 12.7604 14.7445 12.527C14.2336 12.0479 13.4627 11.519 12.8572 11.1789Z" fill="#8E24AA"/>
  <path d="M10.7186 7.09587C11.5922 7.14483 12.0159 7.58369 12.0613 8.48503C12.0777 8.83734 12.6095 8.81286 12.5931 8.46055C12.5349 7.28383 11.8968 6.62816 10.7477 6.56697C10.3977 6.54686 10.3649 7.07577 10.7186 7.09587Z" fill="#8E24AA"/>
</svg>