<svg width="22" height="22" viewBox="0 0 22 22" fill="none" xmlns="http://www.w3.org/2000/svg">
<path d="M21.0625 0.0625H0.9375C0.453516 0.0625 0.0625 0.453516 0.0625 0.9375V21.0625C0.0625 21.5465 0.453516 21.9375 0.9375 21.9375H21.0625C21.5465 21.9375 21.9375 21.5465 21.9375 21.0625V0.9375C21.9375 0.453516 21.5465 0.0625 21.0625 0.0625ZM18.5359 6.44727H16.7887C15.4188 6.44727 15.1535 7.09805 15.1535 8.05508V10.1633H18.4238L17.9973 13.4637H15.1535V21.9375H11.7438V13.4664H8.8918V10.1633H11.7438V7.72969C11.7438 4.90508 13.4691 3.36563 15.9902 3.36563C17.1988 3.36563 18.2352 3.45586 18.5387 3.49688V6.44727H18.5359Z" fill="white"/>
</svg>
