<svg width="22" height="22" viewBox="0 0 22 22" fill="none" xmlns="http://www.w3.org/2000/svg">
<path d="M11 7.35501C8.99298 7.35501 7.35509 8.9929 7.35509 10.9999C7.35509 13.007 8.99298 14.6449 11 14.6449C13.007 14.6449 14.6449 13.007 14.6449 10.9999C14.6449 8.9929 13.007 7.35501 11 7.35501ZM21.932 10.9999C21.932 9.49056 21.9457 7.99486 21.8609 6.48822C21.7762 4.73822 21.377 3.18509 20.0973 1.9054C18.8149 0.622981 17.2645 0.226497 15.5145 0.141731C14.0051 0.0569656 12.5094 0.0706375 11.0027 0.0706375C9.49337 0.0706375 7.99766 0.0569656 6.49102 0.141731C4.74102 0.226497 3.1879 0.625716 1.90821 1.9054C0.625789 3.18783 0.229304 4.73822 0.144539 6.48822C0.0597732 7.99759 0.0734452 9.49329 0.0734452 10.9999C0.0734452 12.5066 0.0597732 14.005 0.144539 15.5117C0.229304 17.2617 0.628523 18.8148 1.90821 20.0945C3.19063 21.3769 4.74102 21.7734 6.49102 21.8581C8.0004 21.9429 9.4961 21.9292 11.0027 21.9292C12.5121 21.9292 14.0078 21.9429 15.5145 21.8581C17.2645 21.7734 18.8176 21.3742 20.0973 20.0945C21.3797 18.812 21.7762 17.2617 21.8609 15.5117C21.9484 14.005 21.932 12.5093 21.932 10.9999ZM11 16.6081C7.89649 16.6081 5.3918 14.1035 5.3918 10.9999C5.3918 7.89642 7.89649 5.39173 11 5.39173C14.1035 5.39173 16.6082 7.89642 16.6082 10.9999C16.6082 14.1035 14.1035 16.6081 11 16.6081ZM16.8379 6.47181C16.1133 6.47181 15.5281 5.88665 15.5281 5.16204C15.5281 4.43743 16.1133 3.85228 16.8379 3.85228C17.5625 3.85228 18.1477 4.43743 18.1477 5.16204C18.1479 5.33411 18.1141 5.50452 18.0484 5.66353C17.9827 5.82253 17.8862 5.967 17.7645 6.08867C17.6429 6.21034 17.4984 6.3068 17.3394 6.37255C17.1804 6.4383 17.01 6.47203 16.8379 6.47181Z" fill="white"/>
</svg>
