<svg width="28" height="22" viewBox="0 0 28 22" fill="none" xmlns="http://www.w3.org/2000/svg">
<path d="M5.00002 0.333496H23C24.1069 0.333424 25.1718 0.756901 25.9763 1.51706C26.7809 2.27721 27.264 3.31642 27.3267 4.4215L27.3334 4.66683V17.3335C27.3334 18.4403 26.9099 19.5053 26.1498 20.3098C25.3896 21.1143 24.3504 21.5975 23.2454 21.6602L23 21.6668H5.00002C3.89317 21.6669 2.82825 21.2434 2.02371 20.4833C1.21918 19.7231 0.736019 18.6839 0.673354 17.5788L0.666687 17.3335V4.66683C0.666615 3.55998 1.09009 2.49506 1.85025 1.69052C2.61041 0.885985 3.64961 0.402828 4.75469 0.340163L5.00002 0.333496H23H5.00002ZM25.3334 7.4975L14.4667 13.2175C14.344 13.2823 14.2091 13.3209 14.0707 13.3308C13.9323 13.3406 13.7933 13.3216 13.6627 13.2748L13.5347 13.2188L2.66669 7.49883V17.3335C2.66671 17.9191 2.88691 18.4833 3.28359 18.914C3.68027 19.3448 4.22442 19.6106 4.80802 19.6588L5.00002 19.6668H23C23.5858 19.6668 24.1502 19.4464 24.581 19.0494C25.0118 18.6525 25.2775 18.108 25.3254 17.5242L25.3334 17.3335V7.4975ZM23 2.3335H5.00002C4.41443 2.33352 3.85026 2.55372 3.4195 2.9504C2.98873 3.34708 2.72287 3.89123 2.67469 4.47483L2.66669 4.66683V5.23883L14 11.2028L25.3334 5.2375V4.66683C25.3333 4.08103 25.1129 3.51668 24.716 3.08589C24.319 2.65509 23.7745 2.38936 23.1907 2.3415L23 2.3335Z" fill="#CDBAAA"/>
</svg>
