<svg width="26" height="26" viewBox="0 0 26 26" fill="none" xmlns="http://www.w3.org/2000/svg">
<path d="M1.59063 4.45937L4.91875 1.13438C5.325 0.728125 5.86875 0.5 6.44375 0.5C7.01875 0.5 7.5625 0.725 7.96875 1.13438L11.5531 4.7125C11.9594 5.11875 12.1875 5.66563 12.1875 6.24063C12.1875 6.81875 11.9625 7.35938 11.5531 7.76875L8.75312 10.5719C9.39099 12.0581 10.3075 13.4084 11.4531 14.55C12.6 15.7031 13.9406 16.6125 15.4281 17.2563L18.2281 14.4531C18.6344 14.0469 19.1781 13.8188 19.7531 13.8188C20.0367 13.8177 20.3177 13.8733 20.5796 13.9822C20.8414 14.0911 21.0789 14.2512 21.2781 14.4531L24.8656 18.0312C25.2719 18.4375 25.5 18.9844 25.5 19.5594C25.5 20.1375 25.275 20.6781 24.8656 21.0875L21.5406 24.4125C20.8469 25.1063 19.8906 25.5031 18.9094 25.5031C18.7063 25.5031 18.5094 25.4875 18.3094 25.4531C14.1719 24.7719 10.0656 22.5688 6.75 19.2563C3.4375 15.9375 1.2375 11.8313 0.549999 7.69063C0.353125 6.51562 0.746876 5.30625 1.59063 4.45937ZM2.76562 7.31875C3.375 11.0031 5.35625 14.6781 8.34063 17.6625C11.325 20.6469 14.9969 22.6281 18.6812 23.2375C19.1437 23.3156 19.6188 23.1594 19.9563 22.825L23.2219 19.5594L19.7594 16.0938L16.0156 19.8438L15.9875 19.8719L15.3125 19.6219C13.2659 18.8694 11.4073 17.6809 9.86565 16.1387C8.32401 14.5965 7.13614 12.7375 6.38437 10.6906L6.13437 10.0156L9.90937 6.24375L6.44687 2.77812L3.18125 6.04375C2.84375 6.38125 2.6875 6.85625 2.76562 7.31875Z" fill="#CDBAAA"/>
</svg>
