<svg width="28" height="27" viewBox="0 0 28 27" fill="none" xmlns="http://www.w3.org/2000/svg">
<path d="M21.5678 26.5643C21.3062 26.5636 21.0455 26.5349 20.79 26.4788C15.9263 25.4727 11.4455 23.1136 7.86332 19.6732C4.35762 16.2252 1.92623 11.8352 0.863325 7.03433C0.737995 6.436 0.768756 5.81547 0.952648 5.23247C1.13654 4.64946 1.46738 4.12359 1.91332 3.70544L5.02444 0.710999C5.18334 0.560722 5.37215 0.445644 5.57854 0.373274C5.78493 0.300903 6.00426 0.272869 6.22221 0.290998C6.44821 0.314575 6.66629 0.387376 6.86113 0.50428C7.05597 0.621184 7.22284 0.779353 7.34999 0.967665L11.2389 6.71544C11.3847 6.93847 11.4551 7.20241 11.4397 7.46844C11.4243 7.73446 11.3239 7.98852 11.1533 8.19322L9.2011 10.5266C9.97861 12.2473 11.0797 13.8026 12.4444 15.1077C13.8003 16.4601 15.403 17.5399 17.1655 18.2888L19.5844 16.3677C19.7876 16.2071 20.0348 16.1122 20.2932 16.0955C20.5516 16.0788 20.809 16.1412 21.0311 16.2743L26.9033 20.0699C27.1048 20.1902 27.2765 20.3546 27.4055 20.5507C27.5345 20.7467 27.6174 20.9695 27.6481 21.2022C27.6788 21.4349 27.6564 21.6715 27.5826 21.8943C27.5089 22.1171 27.3857 22.3203 27.2222 22.4888L24.1889 25.491C23.8443 25.8339 23.4354 26.1052 22.9855 26.2894C22.5357 26.4736 22.0539 26.5671 21.5678 26.5643ZM6.09777 1.831L2.98666 4.82544C2.73579 5.0592 2.55008 5.35424 2.4478 5.68153C2.34552 6.00882 2.3302 6.3571 2.40332 6.69211C3.39166 11.1971 5.66355 15.3195 8.94444 18.561C12.3155 21.7978 16.5321 24.0166 21.1089 24.9621C21.4553 25.0345 21.8143 25.0199 22.1536 24.9194C22.493 24.819 22.8021 24.6359 23.0533 24.3866L26.0867 21.3843L20.4167 17.721L17.8189 19.7899C17.7194 19.8686 17.6022 19.9218 17.4775 19.9448C17.3528 19.9679 17.2243 19.9601 17.1033 19.9221C14.9463 19.1274 12.9916 17.8658 11.3789 16.2277C9.71082 14.6699 8.41603 12.7557 7.5911 10.6277C7.5562 10.4988 7.55504 10.3632 7.58774 10.2338C7.62043 10.1044 7.68587 9.98557 7.77777 9.88878L9.87777 7.37655L6.09777 1.831Z" fill="#CDBAAA"/>
</svg>
