<svg width="24" height="26" viewBox="0 0 24 26" fill="none" xmlns="http://www.w3.org/2000/svg">
<path d="M22.8281 20.8625C22.2386 19.4662 21.3831 18.1978 20.3094 17.1281C19.2388 16.0553 17.9707 15.2 16.575 14.6094C16.5625 14.6031 16.55 14.6 16.5375 14.5938C18.4844 13.1875 19.75 10.8969 19.75 8.3125C19.75 4.03125 16.2812 0.5625 12 0.5625C7.71874 0.5625 4.24999 4.03125 4.24999 8.3125C4.24999 10.8969 5.51561 13.1875 7.46249 14.5969C7.44999 14.6031 7.43749 14.6062 7.42499 14.6125C6.02499 15.2031 4.76874 16.05 3.69061 17.1313C2.61783 18.2018 1.7625 19.4699 1.17186 20.8656C0.591618 22.232 0.27868 23.697 0.249987 25.1812C0.249153 25.2146 0.255003 25.2478 0.267192 25.2788C0.279382 25.3099 0.297665 25.3382 0.320963 25.3621C0.344261 25.386 0.372104 25.4049 0.40285 25.4179C0.433596 25.4308 0.466624 25.4375 0.499987 25.4375H2.37499C2.51249 25.4375 2.62186 25.3281 2.62499 25.1938C2.68749 22.7812 3.65624 20.5219 5.36874 18.8094C7.14061 17.0375 9.49374 16.0625 12 16.0625C14.5062 16.0625 16.8594 17.0375 18.6312 18.8094C20.3437 20.5219 21.3125 22.7812 21.375 25.1938C21.3781 25.3313 21.4875 25.4375 21.625 25.4375H23.5C23.5333 25.4375 23.5664 25.4308 23.5971 25.4179C23.6279 25.4049 23.6557 25.386 23.679 25.3621C23.7023 25.3382 23.7206 25.3099 23.7328 25.2788C23.745 25.2478 23.7508 25.2146 23.75 25.1812C23.7187 23.6875 23.4094 22.2344 22.8281 20.8625ZM12 13.6875C10.5656 13.6875 9.21561 13.1281 8.19999 12.1125C7.18436 11.0969 6.62499 9.74687 6.62499 8.3125C6.62499 6.87813 7.18436 5.52812 8.19999 4.5125C9.21561 3.49687 10.5656 2.9375 12 2.9375C13.4344 2.9375 14.7844 3.49687 15.8 4.5125C16.8156 5.52812 17.375 6.87813 17.375 8.3125C17.375 9.74687 16.8156 11.0969 15.8 12.1125C14.7844 13.1281 13.4344 13.6875 12 13.6875Z" fill="#CDBAAA"/>
</svg>
